<svg xmlns="http://www.w3.org/2000/svg" viewBox="0 0 208.45 168.38"><defs><style>.cls-1{fill:#be1e2d;}.cls-2{fill:#f15a29;}.cls-3{fill:#fbb040;}</style></defs><title>VibeVans-2svg</title><g id="Layer_2" data-name="Layer 2"><g id="Layer_1-2" data-name="Layer 1"><path d="M148,31.1c-10.32,22.12-29.31,65.11-40.32,88.35-1.52,3.21-2.34,4.24-3.48,4.33-1.15-.09-2-1.12-3.49-4.33-11-23.24-30-66.23-40.32-88.35A48.82,48.82,0,0,0,38.19,8.28c10,21.86,32.94,72.49,44.45,97.08,3.91,8.35,12.2,29.5,21.44,29.94v0h.29v0c9.25-.44,17.54-21.59,21.45-29.94,11.5-24.59,34.44-75.22,44.44-97.08A48.86,48.86,0,0,0,148,31.1Z"/><path class="cls-1" d="M170.26,8.28c-10,21.86-32.94,72.49-44.44,97.08-3.93,8.4-12.29,29.73-21.59,30-9.3-.22-17.66-21.55-21.59-29.95C71.13,80.77,48.19,30.14,38.19,8.28A66.61,66.61,0,0,0,24.28,2.94C32.14,20,65.38,92.72,76.48,116.6c4.9,10.54,14.36,29.48,27.61,29.74h.28c13.24-.26,22.7-19.2,27.6-29.74C143.07,92.72,176.31,20,184.18,2.94A66.7,66.7,0,0,0,170.26,8.28Z"/><path class="cls-2" d="M184.18,2.94C176.31,20,143.07,92.72,132,116.6c-4.91,10.58-14.43,29.62-27.74,29.75-13.32-.13-22.83-19.17-27.75-29.75C65.38,92.72,32.14,20,24.28,2.94A84.74,84.74,0,0,0,11.74.64C16.11,10.08,60,105.76,70.32,127.85c4.52,9.69,15,29.35,33.77,29.53h.27c18.76-.18,29.25-19.84,33.77-29.53C148.42,105.76,192.35,10.08,196.71.64A84.85,84.85,0,0,0,184.18,2.94Z"/><path class="cls-3" d="M208.3,0a105.63,105.63,0,0,0-11.59.64c-4.36,9.44-48.29,105.12-58.58,127.21-4.53,9.71-15.06,29.45-33.9,29.54-18.84-.09-29.38-19.83-33.91-29.54C60,105.76,16.11,10.08,11.74.64A105.59,105.59,0,0,0,.16,0H0S54.86,119.3,64.17,139.05c5.9,12.53,16.42,29.2,39.93,29.33h.25c23.52-.13,34-16.8,39.94-29.33,9.3-19.75,64.16-139,64.16-139Z"/></g></g></svg>